<svg xmlns="http://www.w3.org/2000/svg" xmlns:xlink="http://www.w3.org/1999/xlink" id="Layer_2" viewBox="0 0 580.62 136.63"><defs><style>.cls-1{fill:none;}.cls-2{clip-path:url(#clippath);}.cls-3{fill:#f5c1b6;}.cls-4{fill:#ec836e;}.cls-5{fill:#e44725;}</style><clipPath id="clippath"><rect class="cls-1" x="1.99" y="3.81" width="556" height="129"></rect></clipPath></defs><g id="Layer_1-2"><g><g class="cls-2"><g><path class="cls-5" d="m394.75,36.5c0-.91.61-1.52,1.45-1.52s1.52.61,1.52,1.52v19c2.66-4.07,6.6-7.65,12.72-7.65,7.45,0,15.01,6.01,15.01,16.08v.12c0,10.08-7.57,16.21-15.01,16.21-6.18,0-10.17-3.52-12.72-7.4v5.4c0,.85-.61,1.52-1.45,1.52s-1.52-.67-1.52-1.52v-41.75Zm27.49,27.68v-.12c0-8.13-5.63-13.35-12.11-13.35s-12.59,5.4-12.59,13.29v.12c0,7.95,6.18,13.29,12.59,13.29s12.11-4.92,12.11-13.23h0Z"></path><path class="cls-5" d="m432.59,64.17v-.12c0-8.68,6.72-16.21,15.92-16.21s15.8,7.4,15.8,16.08v.12c0,8.68-6.72,16.21-15.92,16.21s-15.8-7.4-15.8-16.08Zm28.52,0v-.12c0-7.47-5.57-13.41-12.71-13.41s-12.59,6.01-12.59,13.29v.12c0,7.47,5.57,13.41,12.72,13.41s12.59-6.01,12.59-13.29Z"></path><path class="cls-5" d="m471.35,64.17v-.12c0-8.68,6.72-16.21,15.92-16.21s15.8,7.4,15.8,16.08v.12c0,8.68-6.72,16.21-15.92,16.21s-15.8-7.4-15.8-16.08Zm28.52,0v-.12c0-7.47-5.57-13.41-12.72-13.41s-12.59,6.01-12.59,13.29v.12c0,7.47,5.57,13.41,12.71,13.41s12.59-6.01,12.59-13.29Z"></path><path class="cls-5" d="m510.22,76.13c-.24-.18-.54-.67-.54-1.16,0-.79.66-1.46,1.45-1.46.36,0,.73.12.97.3,3.21,2.3,6.6,3.52,10.29,3.52,4.18,0,7.45-2.3,7.45-5.89v-.12c0-3.64-3.88-4.98-8.17-6.19-5.02-1.46-10.6-2.98-10.6-8.5v-.12c0-4.98,4.18-8.56,10.17-8.56,3.33,0,7.02,1.09,9.99,2.79.36.24.79.67.79,1.34,0,.79-.66,1.46-1.45,1.46-.36,0-.67-.12-.85-.24-2.66-1.58-5.63-2.55-8.6-2.55-4.23,0-7.02,2.3-7.02,5.4v.12c0,3.46,4.18,4.73,8.59,6.01,4.97,1.39,10.17,3.22,10.17,8.68v.12c0,5.53-4.72,9.04-10.65,9.04-4.18,0-8.84-1.64-11.99-4.01h0Z"></path><path class="cls-5" d="m543.94,71.58v-20.27h-3.33c-.73,0-1.39-.67-1.39-1.39s.66-1.34,1.39-1.34h3.33v-8.62c0-.85.61-1.52,1.45-1.52s1.52.67,1.52,1.52v8.62h9.68c.73,0,1.4.67,1.4,1.39s-.66,1.34-1.4,1.34h-9.68v19.97c0,4.43,2.61,6.01,6.18,6.01,2.12,0,3.09-.61,3.51-.61.66,0,1.33.61,1.33,1.34,0,.61-.36,1.03-.97,1.27-1.21.43-2.61.79-4.36.79-4.79,0-8.66-2.61-8.66-8.5h0Z"></path><path class="cls-3" d="m296.9,30.31c0-3.51,2.68-6.3,6.18-6.3s6.28,2.79,6.28,6.3v43.75c0,3.51-2.78,6.2-6.28,6.2s-6.18-2.69-6.18-6.2V30.31Z"></path><path class="cls-4" d="m320.89,20.7c0-3.41,2.68-6.2,6.18-6.2s6.28,2.79,6.28,6.2v53.36c0,3.51-2.78,6.2-6.28,6.2s-6.18-2.69-6.18-6.2V20.7Z"></path><path class="cls-5" d="m344.88,10.01c0-3.41,2.68-6.2,6.18-6.2s6.28,2.79,6.28,6.2v64.05c0,3.51-2.78,6.2-6.28,6.2s-6.18-2.69-6.18-6.2V10.01Z"></path><path class="cls-5" d="m168.85,69.03h-16.04c-10.25,0-17.13-6.69-17.13-16.64v-.15c0-9.88,7.04-16.79,17.13-16.79h16.04c2.84,0,5.14-2.32,5.14-5.16,0-3.35-2.72-6.07-6.06-6.07h-15.13c-17.17,0-29.62,11.72-29.62,27.87v.15c0,16.24,12.46,28.01,29.62,28.01h15.13c3.34,0,6.06-2.73,6.06-6.07,0-2.85-2.31-5.16-5.14-5.16Z"></path><path class="cls-5" d="m23.17,24.22h-15.13c-3.34,0-6.06,2.73-6.06,6.07,0,2.85,2.31,5.16,5.14,5.16h16.04c10.25,0,17.13,6.69,17.13,16.64v.15c0,9.88-7.04,16.79-17.13,16.79H7.13c-2.84,0-5.14,2.32-5.14,5.16,0,3.35,2.72,6.07,6.06,6.07h15.13c17.17,0,29.62-11.72,29.62-27.87v-.15c0-16.24-12.46-28.01-29.62-28.01Z"></path><path class="cls-3" d="m70.6,80.26c-3.5,0-6.28-2.57-6.28-5.92s2.78-6.01,6.28-6.01h26.72c3.5,0,6.18,2.66,6.18,6.01s-2.68,5.92-6.18,5.92h-26.72Z"></path><path class="cls-4" d="m70.5,58.1c-3.4,0-6.18-2.57-6.18-5.92s2.78-6.01,6.18-6.01h34.99c3.5,0,6.18,2.66,6.18,6.01s-2.68,5.92-6.18,5.92h-34.99Z"></path><path class="cls-5" d="m70.5,35.95c-3.4,0-6.18-2.57-6.18-5.92s2.78-6.02,6.18-6.02h42.89c3.5,0,6.18,2.66,6.18,6.02s-2.68,5.92-6.18,5.92h-42.89Z"></path><path class="cls-5" d="m237.77,30.17c0-3.41,2.68-6.2,6.18-6.2s6.28,2.79,6.28,6.2v20.13l23.66-23.3c1.65-1.65,3.2-2.69,5.36-2.69,3.3,0,5.46,2.69,5.46,5.68,0,2.07-1.03,3.61-2.78,5.27l-14.7,13.59,16.49,21.59c1.13,1.55,1.65,2.69,1.65,4.13,0,3.41-2.68,5.68-5.88,5.68-2.48,0-3.92-.83-5.46-2.79l-15.56-20.76-8.24,7.85v9.5c0,3.51-2.78,6.2-6.28,6.2s-6.18-2.69-6.18-6.2V30.17Z"></path><path class="cls-5" d="m209.27,47c-6.39-2.07-12.26-3.72-12.26-7.74v-.2c0-3.07,2.75-5.33,7.52-5.37.14,0,.26-.02.4-.02h16.79c2.5,0,4.53-2.04,4.53-4.54,0-2.95-2.4-5.35-5.34-5.35h-15.99c-.14,0-.27,0-.4.01h0c-10.62.15-18.96,6.41-18.96,16.61v.2c0,10.43,8.96,13.74,17,16.01,6.39,1.96,12.16,3.41,12.16,7.64v.2c0,3.38-2.71,5.59-7.44,5.86l-17.23.06c-2.5,0-4.53,2.04-4.53,4.54,0,2.95,2.4,5.35,5.34,5.35l16.43-.04c10.69-.43,18.88-6.09,18.88-17.11v-.2c0-9.82-8.96-13.43-16.9-15.91h0Z"></path><path class="cls-5" d="m2.09,112.02c0-.68.55-1.23,1.2-1.23s1.23.55,1.23,1.23v19.36c0,.68-.55,1.23-1.23,1.23s-1.2-.55-1.2-1.23v-19.36Z"></path><path class="cls-5" d="m17.32,113.18h-6.22c-.61,0-1.14-.49-1.14-1.1s.52-1.14,1.14-1.14h14.9c.61,0,1.14.52,1.14,1.14s-.52,1.1-1.14,1.1h-6.22v18.19c0,.68-.55,1.23-1.23,1.23s-1.23-.55-1.23-1.23v-18.19Z"></path><path class="cls-5" d="m41.67,129.87c-.28-.18-.46-.52-.46-.92,0-.68.52-1.2,1.16-1.2.31,0,.58.12.74.28,2.02,1.72,4.05,2.55,6.77,2.55,2.88,0,4.78-1.54,4.78-3.66v-.06c0-2-1.07-3.14-5.58-4.09-4.93-1.07-7.2-2.67-7.2-6.21v-.06c0-3.38,2.97-5.87,7.05-5.87,2.82,0,4.88.71,6.83,2.12.24.18.52.52.52.99,0,.64-.52,1.17-1.16,1.17-.28,0-.49-.06-.7-.22-1.81-1.32-3.55-1.87-5.55-1.87-2.79,0-4.57,1.54-4.57,3.47v.06c0,2.03,1.1,3.16,5.82,4.18,4.78,1.05,6.99,2.79,6.99,6.08v.06c0,3.69-3.07,6.08-7.33,6.08-3.13,0-5.73-.98-8.12-2.89h0Z"></path><path class="cls-5" d="m69.44,132.81c-4.35,0-7.91-3.35-7.91-8.27v-.06c0-4.58,3.22-8.27,7.6-8.27,4.69,0,7.36,3.84,7.36,8.05,0,.64-.52,1.1-1.1,1.1h-11.47c.33,3.44,2.76,5.38,5.58,5.38,1.96,0,3.4-.77,4.57-1.84.18-.15.4-.28.68-.28.58,0,1.04.46,1.04,1.01,0,.28-.12.55-.37.77-1.5,1.44-3.28,2.4-5.98,2.4h0Zm4.69-9.18c-.24-2.89-1.9-5.41-5.06-5.41-2.76,0-4.84,2.3-5.15,5.41h10.21Z"></path><path class="cls-5" d="m81.51,117.6c0-.64.52-1.2,1.16-1.2s1.2.52,1.2,1.2v2.98c1.16-2.64,3.46-4.24,5.46-4.24.7,0,1.16.52,1.16,1.2s-.43,1.1-1.04,1.2c-3.07.37-5.58,2.67-5.58,7.25v5.41c0,.64-.49,1.2-1.16,1.2s-1.2-.52-1.2-1.2v-13.8h0Z"></path><path class="cls-5" d="m101.16,132.7h-.12c-.64,0-1.07-.4-1.35-1.01l-5.95-13.46c-.06-.22-.15-.43-.15-.64,0-.61.52-1.17,1.2-1.17s1.01.4,1.2.92l5.12,12.42,5.21-12.47c.15-.46.49-.86,1.1-.86s1.16.52,1.16,1.17c0,.22-.06.43-.12.59l-5.98,13.52c-.28.62-.68,1.01-1.32,1.01h0Z"></path><path class="cls-5" d="m113.55,111.58c0-.77.61-1.26,1.38-1.26s1.41.49,1.41,1.26v.4c0,.74-.61,1.26-1.41,1.26s-1.38-.52-1.38-1.26v-.4Zm.22,6.02c0-.64.52-1.2,1.16-1.2s1.2.52,1.2,1.2v13.8c0,.68-.49,1.2-1.16,1.2s-1.2-.52-1.2-1.2v-13.8Z"></path><path class="cls-5" d="m121.48,124.58v-.06c0-4.48,3.5-8.3,8.12-8.3,2.63,0,4.42,1.01,5.82,2.31.18.15.37.46.37.83,0,.64-.52,1.14-1.14,1.14-.31,0-.58-.12-.77-.28-1.14-1.05-2.42-1.91-4.32-1.91-3.22,0-5.67,2.74-5.67,6.15v.06c0,3.44,2.51,6.17,5.82,6.17,1.81,0,3.25-.83,4.42-1.93.15-.15.37-.31.68-.31.58,0,1.07.52,1.07,1.08,0,.28-.12.55-.31.74-1.5,1.51-3.31,2.55-5.98,2.55-4.63,0-8.12-3.78-8.12-8.23h0Z"></path><path class="cls-5" d="m147.29,132.81c-4.35,0-7.91-3.35-7.91-8.27v-.06c0-4.58,3.22-8.27,7.6-8.27,4.69,0,7.36,3.84,7.36,8.05,0,.64-.52,1.1-1.1,1.1h-11.47c.33,3.44,2.76,5.38,5.58,5.38,1.96,0,3.4-.77,4.57-1.84.18-.15.4-.28.68-.28.58,0,1.04.46,1.04,1.01,0,.28-.12.55-.37.77-1.5,1.44-3.28,2.4-5.98,2.4h0Zm4.69-9.18c-.24-2.89-1.9-5.41-5.06-5.41-2.76,0-4.84,2.3-5.15,5.41h10.21Z"></path><path class="cls-5" d="m158.51,130.76c-.22-.15-.43-.46-.43-.86,0-.55.46-1.01,1.04-1.01.22,0,.43.06.59.18,1.62,1.1,3.31,1.69,5.03,1.69,1.9,0,3.28-.99,3.28-2.52v-.06c0-1.6-1.87-2.21-3.96-2.79-2.48-.71-5.24-1.57-5.24-4.48v-.06c0-2.74,2.27-4.55,5.39-4.55,1.69,0,3.53.52,5.06,1.35.31.18.58.52.58.98,0,.55-.46,1.01-1.04,1.01-.22,0-.4-.06-.52-.12-1.35-.77-2.79-1.23-4.14-1.23-1.87,0-3.07.98-3.07,2.31v.06c0,1.51,1.96,2.09,4.08,2.74,2.45.74,5.09,1.69,5.09,4.55v.06c0,3.01-2.48,4.76-5.64,4.76-2.08,0-4.38-.77-6.1-2h0Z"></path><path class="cls-5" d="m200.88,132.3l-2.79-2.92c-1.96,2.12-4.26,3.38-7.05,3.38-3.86,0-6.74-2.43-6.74-6.02v-.06c0-2.86,1.9-4.92,5.18-6.21-1.47-1.72-2.15-3.04-2.15-4.73v-.06c0-2.83,2.27-5.1,5.67-5.1,3,0,5.21,2.18,5.21,4.86v.06c0,2.74-1.93,4.48-5.06,5.59l4.9,5.01c.79-1.2,1.56-2.58,2.24-4.09.12-.25.43-.64.98-.64.61,0,1.1.49,1.1,1.1,0,.15-.06.37-.15.55-.79,1.69-1.69,3.26-2.67,4.58l2.97,3.04c.28.31.46.52.46.95,0,.64-.49,1.14-1.13,1.14-.43,0-.68-.15-.98-.43Zm-4.26-4.43l-5.76-5.9c-2.85,1.05-4.11,2.79-4.11,4.61v.06c0,2.3,1.84,4.06,4.47,4.06,2.05,0,3.83-1.08,5.39-2.83h0Zm-.68-12.26v-.06c0-1.72-1.29-2.98-3.04-2.98-1.93,0-3.25,1.35-3.25,3.1v.06c0,1.26.52,2.21,2.14,3.97,2.73-.92,4.14-2.21,4.14-4.09Z"></path><path class="cls-5" d="m217.24,121.75v-.06c0-6.08,4.54-11.12,10.85-11.12,3.46,0,5.67,1.14,7.66,2.79.24.22.49.55.49.98,0,.64-.58,1.2-1.23,1.2-.34,0-.61-.15-.79-.28-1.66-1.47-3.53-2.46-6.16-2.46-4.75,0-8.31,3.87-8.31,8.82v.06c0,4.98,3.59,8.88,8.31,8.88,2.67,0,4.54-.92,6.37-2.61.18-.18.46-.34.77-.34.61,0,1.16.55,1.16,1.17,0,.37-.18.68-.4.86-2.12,1.94-4.44,3.16-7.97,3.16-6.19,0-10.76-4.89-10.76-11.06h0Z"></path><path class="cls-5" d="m247.89,132.81c-4.35,0-7.91-3.35-7.91-8.27v-.06c0-4.58,3.22-8.27,7.6-8.27,4.69,0,7.36,3.84,7.36,8.05,0,.64-.52,1.1-1.1,1.1h-11.47c.34,3.44,2.76,5.38,5.58,5.38,1.96,0,3.4-.77,4.57-1.84.18-.15.4-.28.68-.28.59,0,1.04.46,1.04,1.01,0,.28-.12.55-.37.77-1.5,1.44-3.28,2.4-5.98,2.4h0Zm4.69-9.18c-.24-2.89-1.9-5.41-5.06-5.41-2.76,0-4.84,2.3-5.15,5.41h10.21Z"></path><path class="cls-5" d="m259.97,117.6c0-.64.52-1.2,1.16-1.2s1.2.52,1.2,1.2v1.72c1.04-1.72,2.7-3.1,5.43-3.1,3.83,0,6.07,2.58,6.07,6.36v8.82c0,.68-.52,1.2-1.16,1.2s-1.2-.52-1.2-1.2v-8.24c0-2.95-1.6-4.79-4.38-4.79s-4.75,2-4.75,4.98v8.05c0,.68-.49,1.2-1.16,1.2s-1.2-.52-1.2-1.2v-13.8h0Z"></path><path class="cls-5" d="m280.54,128.24v-9.59h-1.29c-.55,0-1.05-.49-1.05-1.05,0-.59.49-1.05,1.05-1.05h1.29v-3.75c0-.64.49-1.2,1.16-1.2s1.2.55,1.2,1.2v3.75h4.11c.58,0,1.07.49,1.07,1.05,0,.59-.49,1.05-1.07,1.05h-4.11v9.28c0,1.93,1.07,2.64,2.67,2.64.83,0,1.25-.22,1.44-.22.55,0,1.01.46,1.01,1.01,0,.43-.28.77-.68.92-.68.28-1.41.43-2.33.43-2.54,0-4.47-1.26-4.47-4.48h0Z"></path><path class="cls-5" d="m299.43,132.81c-4.35,0-7.91-3.35-7.91-8.27v-.06c0-4.58,3.22-8.27,7.6-8.27,4.69,0,7.36,3.84,7.36,8.05,0,.64-.52,1.1-1.1,1.1h-11.47c.33,3.44,2.76,5.38,5.58,5.38,1.96,0,3.4-.77,4.57-1.84.18-.15.4-.28.68-.28.58,0,1.04.46,1.04,1.01,0,.28-.12.55-.37.77-1.5,1.44-3.28,2.4-5.98,2.4h0Zm4.69-9.18c-.24-2.89-1.9-5.41-5.06-5.41-2.76,0-4.84,2.3-5.15,5.41h10.21Z"></path><path class="cls-5" d="m311.5,117.6c0-.64.52-1.2,1.16-1.2s1.2.52,1.2,1.2v2.98c1.16-2.64,3.46-4.24,5.45-4.24.7,0,1.16.52,1.16,1.2s-.43,1.1-1.04,1.2c-3.07.37-5.58,2.67-5.58,7.25v5.41c0,.64-.49,1.2-1.16,1.2s-1.2-.52-1.2-1.2v-13.8h0Z"></path><path class="cls-5" d="m323.91,130.76c-.22-.15-.43-.46-.43-.86,0-.55.46-1.01,1.04-1.01.22,0,.43.06.59.18,1.62,1.1,3.31,1.69,5.03,1.69,1.9,0,3.28-.99,3.28-2.52v-.06c0-1.6-1.87-2.21-3.96-2.79-2.48-.71-5.24-1.57-5.24-4.48v-.06c0-2.74,2.27-4.55,5.39-4.55,1.69,0,3.52.52,5.06,1.35.31.18.58.52.58.98,0,.55-.46,1.01-1.04,1.01-.22,0-.4-.06-.52-.12-1.35-.77-2.79-1.23-4.14-1.23-1.87,0-3.07.98-3.07,2.31v.06c0,1.51,1.96,2.09,4.08,2.74,2.45.74,5.09,1.69,5.09,4.55v.06c0,3.01-2.48,4.76-5.64,4.76-2.08,0-4.38-.77-6.1-2h0Z"></path><path class="cls-5" d="m349.97,124.58v-.06c0-4.48,3.5-8.3,8.28-8.3s8.25,3.75,8.25,8.24v.06c0,4.48-3.52,8.3-8.3,8.3s-8.21-3.75-8.21-8.23h0Zm14.1,0v-.06c0-3.41-2.54-6.21-5.89-6.21s-5.8,2.79-5.8,6.15v.06c0,3.41,2.51,6.17,5.85,6.17s5.82-2.76,5.82-6.12h0Z"></path><path class="cls-5" d="m372.5,118.65h-1.29c-.58,0-1.01-.46-1.01-1.05,0-.55.46-1.01,1.01-1.01h1.29v-1.38c0-1.81.49-3.2,1.38-4.09.79-.8,1.96-1.23,3.4-1.23.77,0,1.35.06,1.87.18.46.09.86.49.86,1.01,0,.61-.52,1.08-1.14,1.01-.4-.06-.83-.15-1.29-.15-1.84,0-2.76,1.1-2.76,3.38v1.29h4.11c.58,0,1.04.43,1.04,1.01,0,.55-.46,1.01-1.04,1.01h-4.08v12.75c0,.64-.49,1.2-1.16,1.2s-1.2-.55-1.2-1.2v-12.75h0Z"></path><path class="cls-5" d="m394.17,131.22v-19.05c0-.68.55-1.23,1.2-1.23h13.33c.61,0,1.1.49,1.1,1.1s-.49,1.1-1.1,1.1h-12.11v7.35h10.73c.61,0,1.1.52,1.1,1.1,0,.61-.49,1.1-1.1,1.1h-10.73v7.53h12.26c.61,0,1.1.49,1.1,1.1s-.49,1.1-1.1,1.1h-13.49c-.64,0-1.2-.55-1.2-1.23h0Z"></path><path class="cls-5" d="m414.68,130.76l5.18-6.39-4.88-5.99c-.24-.28-.37-.55-.37-.86,0-.68.49-1.1,1.1-1.1.46,0,.77.22,1.04.55l4.57,5.81,4.54-5.78c.28-.34.58-.59,1.01-.59.61,0,1.07.46,1.07,1.08,0,.31-.12.55-.31.77l-4.93,6.06,5.15,6.33c.22.28.33.55.33.86,0,.64-.49,1.1-1.1,1.1-.46,0-.77-.22-1.05-.55l-4.81-6.12-4.78,6.08c-.28.34-.59.59-1.01.59-.61,0-1.07-.49-1.07-1.08,0-.31.09-.55.31-.77Z"></path><path class="cls-5" d="m431.63,124.58v-.06c0-4.48,3.5-8.3,8.12-8.3,2.63,0,4.42,1.01,5.82,2.31.18.15.37.46.37.83,0,.64-.52,1.14-1.14,1.14-.31,0-.58-.12-.77-.28-1.14-1.05-2.42-1.91-4.32-1.91-3.22,0-5.67,2.74-5.67,6.15v.06c0,3.44,2.51,6.17,5.82,6.17,1.81,0,3.25-.83,4.42-1.93.15-.15.37-.31.68-.31.59,0,1.07.52,1.07,1.08,0,.28-.12.55-.31.74-1.5,1.51-3.31,2.55-5.98,2.55-4.63,0-8.12-3.78-8.12-8.23h0Z"></path><path class="cls-5" d="m457.44,132.81c-4.35,0-7.91-3.35-7.91-8.27v-.06c0-4.58,3.22-8.27,7.6-8.27,4.69,0,7.36,3.84,7.36,8.05,0,.64-.52,1.1-1.1,1.1h-11.47c.34,3.44,2.76,5.38,5.58,5.38,1.96,0,3.4-.77,4.57-1.84.18-.15.4-.28.67-.28.58,0,1.04.46,1.04,1.01,0,.28-.12.55-.37.77-1.51,1.44-3.28,2.4-5.98,2.4h0Zm4.69-9.18c-.24-2.89-1.9-5.41-5.06-5.41-2.76,0-4.84,2.3-5.15,5.41h10.21Z"></path><path class="cls-5" d="m469.73,111.06c0-.64.52-1.2,1.16-1.2s1.2.55,1.2,1.2v20.34c0,.68-.49,1.2-1.16,1.2s-1.2-.52-1.2-1.2v-20.34Z"></path><path class="cls-5" d="m478.65,111.06c0-.64.52-1.2,1.16-1.2s1.2.55,1.2,1.2v20.34c0,.68-.49,1.2-1.16,1.2s-1.2-.52-1.2-1.2v-20.34Z"></path><path class="cls-5" d="m494.28,132.81c-4.35,0-7.91-3.35-7.91-8.27v-.06c0-4.58,3.22-8.27,7.6-8.27,4.69,0,7.36,3.84,7.36,8.05,0,.64-.52,1.1-1.1,1.1h-11.47c.33,3.44,2.76,5.38,5.58,5.38,1.97,0,3.4-.77,4.57-1.84.18-.15.4-.28.68-.28.58,0,1.04.46,1.04,1.01,0,.28-.12.55-.37.77-1.5,1.44-3.28,2.4-5.98,2.4h0Zm4.69-9.18c-.24-2.89-1.9-5.41-5.06-5.41-2.76,0-4.84,2.3-5.15,5.41h10.21Z"></path><path class="cls-5" d="m506.36,117.6c0-.64.52-1.2,1.16-1.2s1.2.52,1.2,1.2v1.72c1.04-1.72,2.7-3.1,5.43-3.1,3.83,0,6.07,2.58,6.07,6.36v8.82c0,.68-.52,1.2-1.16,1.2s-1.2-.52-1.2-1.2v-8.24c0-2.95-1.59-4.79-4.38-4.79s-4.75,2-4.75,4.98v8.05c0,.68-.49,1.2-1.16,1.2s-1.2-.52-1.2-1.2v-13.8h0Z"></path><path class="cls-5" d="m525.12,124.58v-.06c0-4.48,3.5-8.3,8.12-8.3,2.63,0,4.42,1.01,5.82,2.31.18.15.37.46.37.83,0,.64-.52,1.14-1.13,1.14-.31,0-.59-.12-.77-.28-1.14-1.05-2.42-1.91-4.32-1.91-3.22,0-5.67,2.74-5.67,6.15v.06c0,3.44,2.51,6.17,5.82,6.17,1.81,0,3.25-.83,4.42-1.93.15-.15.37-.31.68-.31.58,0,1.07.52,1.07,1.08,0,.28-.12.55-.31.74-1.5,1.51-3.31,2.55-5.98,2.55-4.63,0-8.12-3.78-8.12-8.23h0Z"></path><path class="cls-5" d="m550.93,132.81c-4.35,0-7.91-3.35-7.91-8.27v-.06c0-4.58,3.22-8.27,7.6-8.27,4.69,0,7.36,3.84,7.36,8.05,0,.64-.52,1.1-1.1,1.1h-11.47c.33,3.44,2.76,5.38,5.58,5.38,1.96,0,3.4-.77,4.57-1.84.18-.15.4-.28.68-.28.58,0,1.04.46,1.04,1.01,0,.28-.12.55-.37.77-1.5,1.44-3.28,2.4-5.98,2.4h0Zm4.69-9.18c-.24-2.89-1.9-5.41-5.06-5.41-2.76,0-4.84,2.3-5.15,5.41h10.21Z"></path></g></g><rect class="cls-1" width="580.62" height="136.63"></rect></g></g></svg>